<?xml version="1.0" encoding="UTF-8"?>
<svg width="43px" height="43px" viewBox="0 0 43 43" version="1.1" xmlns="http://www.w3.org/2000/svg" xmlns:xlink="http://www.w3.org/1999/xlink">
    <!-- Generator: Sketch 52 (66869) - http://www.bohemiancoding.com/sketch -->
    <title>Graph/Pie-3 Copy</title>
    <desc>Created with Sketch.</desc>
    <defs>
        <path d="M0,20.9345218 C0,26.8260087 2.53902549,32.5333417 6.9116919,36.4813414 C12.1182557,41.1821104 19.5159988,42.9741103 26.3020497,41.1817514 C30.1951264,40.1536489 33.7482544,37.9807772 36.4527671,34.9998543 L34.4184595,33.1550852 C33.92128,32.7042134 33.4237416,32.2533417 32.9265621,31.8024699 C32.7305622,31.6247776 32.5345622,31.4470853 32.3389211,31.269752 C32.2402032,31.1803674 32.103434,30.9962135 31.9795878,30.9441623 C31.9602032,30.9355469 31.935434,30.8860084 31.9146135,30.8849315 C31.8342032,30.8817007 31.6051776,31.2058546 31.5358956,31.2769315 C31.1553828,31.6664186 30.7533315,32.0358032 30.3322546,32.3818545 C29.48687,33.0761108 28.564306,33.6773929 27.5864599,34.1691877 C25.5833831,35.1775466 23.3581012,35.7142133 21.1163064,35.7404184 C17.2465631,35.7852902 13.4590248,34.2862133 10.6712301,31.6021622 C7.91394825,28.946829 6.26984578,25.2655472 6.14169194,21.4392397 C6.1395381,21.3710346 6.17543553,20.9750859 6.12876887,20.9345218 C6.11297399,20.9205218 6.04907656,20.9406244 6.02825605,20.9345218 C5.88933298,20.8939577 5.67574325,20.9345218 5.53143557,20.9345218 L3.77389721,20.9345218 L0.229384602,20.9345218 L0,20.9345218 Z" id="path-1"></path>
        <path d="M0,20.9345218 L4.28399974,20.9345218 L5.43953814,20.9345218 C5.57917915,20.9345218 5.97117913,21.0070346 6.0946663,20.9345218 C6.18548681,20.8813936 6.1352304,20.652368 6.13882015,20.5303167 C6.14743553,20.1968296 6.16753809,19.8640604 6.19876886,19.5320091 C6.26302527,18.847804 6.37502526,18.1675476 6.53369192,17.4991374 C7.73948672,12.4243172 11.6702557,8.25842002 16.6635888,6.75467652 C21.7761013,5.21467661 27.4554343,6.60677909 31.2763571,10.3325737 C35.2965107,14.2522145 36.7672286,20.2704193 34.9949723,25.6054959 C34.5071261,27.0744189 33.7859467,28.4632906 32.8680493,29.7089316 C32.6569724,29.9950341 32.4362032,30.2735982 32.2053827,30.5439059 C32.1113314,30.654111 31.8955878,30.7955469 31.9479981,30.9154443 C32.0126135,31.0626238 32.3062545,31.2403161 32.4232801,31.3462135 C33.6685621,32.4751878 34.9138441,33.6045211 36.159126,34.7331364 C36.257126,34.822521 36.355126,34.9111877 36.4527671,34.9998543 C40.608613,30.4193418 42.5467154,24.0834447 41.6690232,17.9614964 C40.8444591,12.2121634 37.5752798,6.95606112 32.7869211,3.67108696 C28.2379983,0.550523044 22.5152294,-0.663528166 17.07964,0.349497415 C12.6068198,1.1833948 8.47430719,3.50667671 5.42015352,6.8767278 C2.35164089,10.2622148 0.450512794,14.6226761 0.0728717905,19.1773424 C0.024410255,19.7617527 0,20.3479578 0,20.9345218" id="path-3"></path>
    </defs>
    <g id="Designs" stroke="none" stroke-width="1" fill="none" fill-rule="evenodd">
        <g id="Desktop---Home" transform="translate(-1111.000000, -6957.000000)">
            <g id="Stacked-Group" transform="translate(255.000000, 5439.000000)">
                <g id="Group-22" transform="translate(0.000000, 1318.000000)">
                    <g id="Group-35" transform="translate(570.000000, 165.000000)">
                        <g id="Group-3-Copy-8" transform="translate(230.500000, 26.600000)">
                            <g id="Graph/Pie-3-Copy" transform="translate(76.799995, 29.999999) rotate(139.000000) translate(-76.799995, -29.999999) translate(55.799997, 9.000000)">
                                <mask id="mask-2" fill="white">
                                    <use xlink:href="#path-1"></use>
                                </mask>
                                <use id="Mask" fill="#00ACBF" xlink:href="#path-1"></use>
                                <mask id="mask-4" fill="white">
                                    <use xlink:href="#path-3"></use>
                                </mask>
                                <g id="Mask">
                                    <use fill="#D9E6F0" xlink:href="#path-3"></use>
                                    <use fill="#CCE3EB" xlink:href="#path-3"></use>
                                </g>
                            </g>
                        </g>
                    </g>
                </g>
            </g>
        </g>
    </g>
</svg>