<?xml version="1.0" encoding="UTF-8"?>
<svg width="28px" height="27px" viewBox="0 0 28 27" version="1.1" xmlns="http://www.w3.org/2000/svg" xmlns:xlink="http://www.w3.org/1999/xlink">
    <!-- Generator: Sketch 52 (66869) - http://www.bohemiancoding.com/sketch -->
    <title>05-time/calendar-1 copy</title>
    <desc>Created with Sketch.</desc>
    <defs>
        <path d="M29.4666667,6.23333333 L24.3666667,6.23333333 L24.3666667,4.53333333 C24.3666667,4.22053333 24.1128,3.96666667 23.8,3.96666667 C23.4872,3.96666667 23.2333333,4.22053333 23.2333333,4.53333333 L23.2333333,6.23333333 L19.8333333,6.23333333 L19.8333333,4.53333333 C19.8333333,4.22053333 19.5794667,3.96666667 19.2666667,3.96666667 C18.9538667,3.96666667 18.7,4.22053333 18.7,4.53333333 L18.7,6.23333333 L15.3,6.23333333 L15.3,4.53333333 C15.3,4.22053333 15.0461333,3.96666667 14.7333333,3.96666667 C14.4205333,3.96666667 14.1666667,4.22053333 14.1666667,4.53333333 L14.1666667,6.23333333 L10.7666667,6.23333333 L10.7666667,4.53333333 C10.7666667,4.22053333 10.5128,3.96666667 10.2,3.96666667 C9.8872,3.96666667 9.63333333,4.22053333 9.63333333,4.53333333 L9.63333333,6.23333333 L4.53333333,6.23333333 C4.22053333,6.23333333 3.96666667,6.4872 3.96666667,6.8 L3.96666667,29.4666667 C3.96666667,29.7794667 4.22053333,30.0333333 4.53333333,30.0333333 L29.4666667,30.0333333 C29.7794667,30.0333333 30.0333333,29.7794667 30.0333333,29.4666667 L30.0333333,6.8 C30.0333333,6.4872 29.7794667,6.23333333 29.4666667,6.23333333 Z M28.9,28.9 L5.1,28.9 L5.1,7.36666667 L9.63333333,7.36666667 L9.63333333,9.06666667 C9.63333333,9.37946667 9.8872,9.63333333 10.2,9.63333333 C10.5128,9.63333333 10.7666667,9.37946667 10.7666667,9.06666667 L10.7666667,7.36666667 L14.1666667,7.36666667 L14.1666667,9.06666667 C14.1666667,9.37946667 14.4205333,9.63333333 14.7333333,9.63333333 C15.0461333,9.63333333 15.3,9.37946667 15.3,9.06666667 L15.3,7.36666667 L18.7,7.36666667 L18.7,9.06666667 C18.7,9.37946667 18.9538667,9.63333333 19.2666667,9.63333333 C19.5794667,9.63333333 19.8333333,9.37946667 19.8333333,9.06666667 L19.8333333,7.36666667 L23.2333333,7.36666667 L23.2333333,9.06666667 C23.2333333,9.37946667 23.4872,9.63333333 23.8,9.63333333 C24.1128,9.63333333 24.3666667,9.37946667 24.3666667,9.06666667 L24.3666667,7.36666667 L28.9,7.36666667 L28.9,28.9 Z M12.4666667,11.9 C12.1538667,11.9 11.9,12.1538667 11.9,12.4666667 L11.9,16.4333333 L7.93333333,16.4333333 C7.62053333,16.4333333 7.36666667,16.6872 7.36666667,17 L7.36666667,26.0666667 C7.36666667,26.3794667 7.62053333,26.6333333 7.93333333,26.6333333 L26.0666667,26.6333333 C26.3794667,26.6333333 26.6333333,26.3794667 26.6333333,26.0666667 L26.6333333,12.4666667 C26.6333333,12.1538667 26.3794667,11.9 26.0666667,11.9 L12.4666667,11.9 Z M13.0333333,17.5666667 L16.4333333,17.5666667 L16.4333333,20.9666667 L13.0333333,20.9666667 L13.0333333,17.5666667 Z M16.4333333,22.1 L16.4333333,25.5 L13.0333333,25.5 L13.0333333,22.1 L16.4333333,22.1 Z M17.5666667,22.1 L20.9666667,22.1 L20.9666667,25.5 L17.5666667,25.5 L17.5666667,22.1 Z M17.5666667,20.9666667 L17.5666667,17.5666667 L20.9666667,17.5666667 L20.9666667,20.9666667 L17.5666667,20.9666667 Z M17.5666667,16.4333333 L17.5666667,13.0333333 L20.9666667,13.0333333 L20.9666667,16.4333333 L17.5666667,16.4333333 Z M22.1,17.5666667 L25.5,17.5666667 L25.5,20.9666667 L22.1,20.9666667 L22.1,17.5666667 Z M25.5,16.4333333 L22.1,16.4333333 L22.1,13.0333333 L25.5,13.0333333 L25.5,16.4333333 Z M16.4333333,13.0333333 L16.4333333,16.4333333 L13.0333333,16.4333333 L13.0333333,13.0333333 L16.4333333,13.0333333 Z M11.9,17.5666667 L11.9,20.9666667 L8.5,20.9666667 L8.5,17.5666667 L11.9,17.5666667 Z M8.5,22.1 L11.9,22.1 L11.9,25.5 L8.5,25.5 L8.5,22.1 Z M22.1,25.5 L22.1,22.1 L25.5,22.1 L25.5,25.5 L22.1,25.5 Z" id="path-1"></path>
    </defs>
    <g id="Designs" stroke="none" stroke-width="1" fill="none" fill-rule="evenodd">
        <g id="Desktop---Home" transform="translate(-1117.000000, -5656.000000)">
            <g id="Stacked-Group" transform="translate(255.000000, 5439.000000)">
                <g id="Group-20">
                    <g id="Group-34" transform="translate(570.000000, 165.000000)">
                        <g id="Group-10-Copy-3" transform="translate(24.000000, 37.000000)">
                            <g id="05-time/calendar-2" transform="translate(265.000000, 11.000000)">
                                <mask id="mask-2" fill="white">
                                    <use xlink:href="#path-1"></use>
                                </mask>
                                <use id="calendar-2" fill="#58595B" fill-rule="nonzero" xlink:href="#path-1"></use>
                                <g id="🎨colour/primary-2🎨" mask="url(#mask-2)" fill="#376D9C" fill-rule="evenodd">
                                    <rect id="Rectangle-2" x="0" y="0" width="34" height="34"></rect>
                                </g>
                            </g>
                        </g>
                    </g>
                </g>
            </g>
        </g>
    </g>
</svg>